<svg xmlns="http://www.w3.org/2000/svg" width="512" height="512" viewBox="0 0 512 512" fill="none"><metadata><rdf:RDF xmlns:rdf="http://www.w3.org/1999/02/22-rdf-syntax-ns#" xmlns:dc="http://purl.org/dc/elements/1.1/"><rdf:Description><dc:creator>RealFaviconGenerator</dc:creator><dc:source>https://realfavicongenerator.net</dc:source></rdf:Description></rdf:RDF></metadata><path d="M474.297 191.89V175L106.61 175V191.89L474.297 191.89Z" fill="url(#paint0_linear_2340_792)"></path><path d="M36 202.767H82.2493C91.0652 202.767 93.6743 208.206 93.6743 217.744V250.267C93.6743 257.7 89.692 264.478 80.4916 264.478H54.648V283.145H36V202.767ZM75.0263 248.654V219.22H54.648V248.654H75.0263Z" fill="#00325D"></path><path d="M106.61 202.767H125.368V283.172H106.61V202.767Z" fill="#00325D"></path><path d="M140.034 202.767H191.501V218.728H158.819V234.935H182.548V250.759H158.819V267.211H191.501V283.172H140.034V202.767Z" fill="#00325D"></path><path d="M221.217 219.22H200.839V202.767H260.49V219.22H240.112V283.172H221.217V219.22Z" fill="#00325D"></path><path d="M328.986 267.457C328.986 277.241 323.767 283.172 313.935 283.172H285.235C276.777 283.172 270.323 278.225 270.323 267.703V255.077H288.833V267.184H310.475V255.432L278.891 243.817C272.437 240.975 270.323 237.886 270.323 229.961V216.35C270.323 206.566 275.678 202.74 284.604 202.74H314.073C325.635 202.74 328.986 208.425 328.986 219.439V229.578H310.475V218.701H288.833V229.086L320.417 240.455C327.118 243.188 328.986 246.277 328.986 254.667V267.403V267.457Z" fill="#00325D"></path><path d="M400.831 250.759V267.321C400.831 275.492 397.233 283.145 385.424 283.145H357.823C347.881 283.145 342.168 277.815 342.168 267.184V217.607C342.168 206.73 347.771 202.767 356.697 202.767H385.918C397.233 202.767 400.831 208.343 400.831 219.466V230.972H382.32V219.466H360.679V266.583H382.32V250.759H400.831Z" fill="#00325D"></path><path d="M413.767 202.767H432.525V235.427H455.649V202.767H474.297V283.172H455.649V251.497H432.525V283.172H413.767V202.767Z" fill="#00325D"></path><path d="M36 293.448H42.5913V312.36H59.4268V293.448H65.9906V337.121H59.4268V317.717H42.5913V337.121H36V293.448Z" fill="#00325D"></path><path d="M87.0555 328.02L83.9795 337.121H76.8389L92.8229 293.448H99.1671L115.151 337.121H108.01L104.934 328.02H87.0555ZM96.0087 301.401L88.6209 322.746H103.314L96.0087 301.401Z" fill="#00325D"></path><path d="M130.696 293.448V320.969C130.696 325.178 131.053 327.146 132.041 328.868C133.579 331.382 135.722 332.421 139.539 332.421C143.357 332.421 145.883 331.191 147.284 328.321C148.025 326.736 148.328 324.659 148.328 320.969V293.448H154.919V320.969C154.919 327.255 154.315 330.07 152.2 332.666C149.426 336.219 145.609 337.75 139.539 337.75C133.03 337.75 128.856 335.919 126.192 331.929C124.599 329.496 124.104 326.791 124.104 320.969V293.448H130.668H130.696Z" fill="#00325D"></path><path d="M171.205 327.72C173.1 330.781 176.616 332.366 181.669 332.366C187.519 332.366 190.705 329.906 190.705 325.397C190.705 323.183 189.853 321.352 188.315 320.313C187.326 319.621 184.699 318.765 180.433 317.744C171.397 315.476 167.882 311.923 167.882 305.009C167.882 297.302 173.045 292.847 181.834 292.847C188.095 292.847 192.709 294.924 195.181 298.914L190.265 302.084C188.425 299.461 185.541 298.176 181.669 298.176C177 298.176 174.226 300.608 174.226 304.708C174.226 308.807 176.561 310.775 183.701 312.552C189.606 313.973 190.65 314.383 192.847 315.859C195.675 317.744 197.021 320.805 197.021 325.205C197.021 333.35 191.666 337.75 181.586 337.75C174.089 337.75 168.981 335.481 166.152 330.89L171.205 327.72Z" fill="#00325D"></path><path d="M218.471 298.832H206.167V293.448H237.338V298.832H225.034V337.121H218.443V298.832H218.471Z" fill="#00325D"></path><path d="M249.148 293.448H275.458V298.832H255.657V312.36H272.492V317.744H255.657V331.765H275.65V337.149H249.148V293.475V293.448Z" fill="#00325D"></path><path d="M316.627 326.299C316.187 333.814 311.024 337.75 301.824 337.75C295.974 337.75 292.046 335.973 289.41 332.311C287.432 329.496 286.718 326.08 286.718 319.903V310.803C286.718 304.134 287.652 300.526 290.096 297.657C292.733 294.487 296.413 293.011 301.851 293.011C310.832 293.011 315.748 297.056 316.16 304.626L310.063 305.118C309.514 300.663 306.74 298.34 302.016 298.34C295.672 298.34 293.282 301.893 293.282 311.24V319.548C293.282 328.977 295.672 332.448 302.016 332.448C306.987 332.448 309.898 330.125 310.502 325.67L316.654 326.353L316.627 326.299Z" fill="#00325D"></path><path d="M329.59 293.448H336.153V312.36H352.989V293.448H359.553V337.121H352.989V317.717H336.153V337.121H329.59V293.448Z" fill="#00325D"></path><path d="M374.658 293.448H381.057L400.611 326.107V293.448H407.01V337.121H400.611L381.057 304.462V337.121H374.658V293.448Z" fill="#00325D"></path><path d="M422.061 293.448H428.625V337.121H422.061V293.448Z" fill="#00325D"></path><path d="M443.757 293.448H450.266V315.285L467.102 293.448H474.792L460.455 311.185L476 337.121H468.365L456.198 315.64L450.239 323.156V337.094H443.73V293.421L443.757 293.448Z" fill="#00325D"></path><defs>
<linearGradient id="paint0_linear_2340_792" x1="106.61" y1="183.445" x2="474.297" y2="183.445" gradientUnits="userSpaceOnUse">
<stop stop-color="#00325D"></stop>
<stop offset="1" stop-color="#82B1DD"></stop>
</linearGradient>
</defs><style>@media (prefers-color-scheme: light) { :root { filter: none; } }
@media (prefers-color-scheme: dark) { :root { filter: invert(100%); } }
</style></svg>